HIERARCHY
ROOT hip
{
  OFFSET 0 0 0
  CHANNELS 6 Xposition Yposition Zposition Zrotation Yrotation Xrotation
  JOINT abdomen
  {
    OFFSET 0 20.6881 -0.73152
    CHANNELS 3 Zrotation Xrotation Yrotation
    JOINT chest
    {
      OFFSET 0 11.7043 -0.48768
      CHANNELS 3 Zrotation Xrotation Yrotation
      JOINT neck
      {
        OFFSET 0 22.1894 -2.19456
        CHANNELS 3 Zrotation Xrotation Yrotation
        JOINT head
        {
          OFFSET -0.24384 7.07133 1.2192
          CHANNELS 3 Zrotation Xrotation Yrotation
          JOINT leftEye
          {
            OFFSET 4.14528 8.04674 8.04672
            CHANNELS 3 Zrotation Xrotation Yrotation
            End Site
            {
              OFFSET 1 0 0
            }
          }
          JOINT rightEye
          {
            OFFSET -3.6576 8.04674 8.04672
            CHANNELS 3 Zrotation Xrotation Yrotation
            End Site
            {
              OFFSET 1 0 0
            }
          }
        }
      }
      JOINT rCollar
      {
        OFFSET -2.68224 19.2634 -4.8768
        CHANNELS 3 Zrotation Xrotation Yrotation
        JOINT rShldr
        {
          OFFSET -8.77824 -1.95073 1.46304
          CHANNELS 3 Zrotation Xrotation Yrotation
          JOINT rForeArm
          {
            OFFSET -28.1742 -1.7115 0.48768
            CHANNELS 3 Zrotation Xrotation Yrotation
            JOINT rHand
            {
              OFFSET -22.5879 0.773209 7.07136
              CHANNELS 3 Zrotation Xrotation Yrotation
              JOINT rThumb1
              {
                OFFSET -1.2192 -0.487915 3.41376
                CHANNELS 3 Zrotation Xrotation Yrotation
                JOINT rThumb2
                {
                  OFFSET -3.37035 -0.52449 3.41376
                  CHANNELS 3 Zrotation Xrotation Yrotation
                  End Site
                  {
                    OFFSET -1.78271 -1.18214 1.43049
                  }
                }
              }
              JOINT rIndex1
              {
                OFFSET -7.75947 0.938293 5.60832
                CHANNELS 3 Zrotation Xrotation Yrotation
                JOINT rIndex2
                {
                  OFFSET -2.54057 -0.884171 1.56538
                  CHANNELS 3 Zrotation Xrotation Yrotation
                  End Site
                  {
                    OFFSET -1.62519 -0.234802 1.16502
                  }
                }
              }
              JOINT rMid1
              {
                OFFSET -8.24714 1.18213 3.41376
                CHANNELS 3 Zrotation Xrotation Yrotation
                JOINT rMid2
                {
                  OFFSET -3.10165 -0.590103 1.0647
                  CHANNELS 3 Zrotation Xrotation Yrotation
                  End Site
                  {
                    OFFSET -2.48547 -0.328903 0.83742
                  }
                }
              }
              JOINT rRing1
              {
                OFFSET -8.82822 0.546677 1.51678
                CHANNELS 3 Zrotation Xrotation Yrotation
                JOINT rRing2
                {
                  OFFSET -2.60934 -0.819778 -0.0198488
                  CHANNELS 3 Zrotation Xrotation Yrotation
                  End Site
                  {
                    OFFSET -2.33842 -0.294052 0.168128
                  }
                }
              }
              JOINT rPinky1
              {
                OFFSET -8.27202 -0.0477905 -0.4584
                CHANNELS 3 Zrotation Xrotation Yrotation
                JOINT rPinky2
                {
                  OFFSET -1.82734 -0.647385 -0.700984
                  CHANNELS 3 Zrotation Xrotation Yrotation
                  End Site
                  {
                    OFFSET -1.69225 -0.51767 -0.607171
                  }
                }
              }
            }
          }
        }
      }
      JOINT lCollar
      {
        OFFSET 2.68224 19.2634 -4.8768
        CHANNELS 3 Zrotation Xrotation Yrotation
        JOINT lShldr
        {
          OFFSET 8.77824 -1.95073 1.46304
          CHANNELS 3 Zrotation Xrotation Yrotation
          JOINT lForeArm
          {
            OFFSET 28.1742 -1.7115 0.48768
            CHANNELS 3 Zrotation Xrotation Yrotation
            JOINT lHand
            {
              OFFSET 22.5879 0.773209 7.07136
              CHANNELS 3 Zrotation Xrotation Yrotation
              JOINT lThumb1
              {
                OFFSET 1.2192 -0.487915 3.41376
                CHANNELS 3 Zrotation Xrotation Yrotation
                JOINT lThumb2
                {
                  OFFSET 3.37035 -0.52449 3.41376
                  CHANNELS 3 Zrotation Xrotation Yrotation
                  End Site
                  {
                    OFFSET 1.78271 -1.18214 1.43049
                  }
                }
              }
              JOINT lIndex1
              {
                OFFSET 7.75947 0.938293 5.60832
                CHANNELS 3 Zrotation Xrotation Yrotation
                JOINT lIndex2
                {
                  OFFSET 2.54057 -0.884171 1.56538
                  CHANNELS 3 Zrotation Xrotation Yrotation
                  End Site
                  {
                    OFFSET 1.62519 -0.234802 1.16502
                  }
                }
              }
              JOINT lMid1
              {
                OFFSET 8.24714 1.18213 3.41376
                CHANNELS 3 Zrotation Xrotation Yrotation
                JOINT lMid2
                {
                  OFFSET 3.10165 -0.590103 1.0647
                  CHANNELS 3 Zrotation Xrotation Yrotation
                  End Site
                  {
                    OFFSET 2.48547 -0.328903 0.83742
                  }
                }
              }
              JOINT lRing1
              {
                OFFSET 8.82822 0.546677 1.51678
                CHANNELS 3 Zrotation Xrotation Yrotation
                JOINT lRing2
                {
                  OFFSET 2.60934 -0.819778 -0.0198488
                  CHANNELS 3 Zrotation Xrotation Yrotation
                  End Site
                  {
                    OFFSET 2.33842 -0.294052 0.168128
                  }
                }
              }
              JOINT lPinky1
              {
                OFFSET 8.27202 -0.0477905 -0.4584
                CHANNELS 3 Zrotation Xrotation Yrotation
                JOINT lPinky2
                {
                  OFFSET 1.82734 -0.647385 -0.700984
                  CHANNELS 3 Zrotation Xrotation Yrotation
                  End Site
                  {
                    OFFSET 1.69225 -0.51767 -0.607171
                  }
                }
              }
            }
          }
        }
      }
    }
  }
  JOINT rButtock
  {
    OFFSET -8.77824 4.35084 1.2192
    CHANNELS 3 Zrotation Xrotation Yrotation
    JOINT rThigh
    {
      OFFSET 0 -1.70687 -2.19456
      CHANNELS 3 Zrotation Xrotation Yrotation
      JOINT rShin
      {
        OFFSET 0 -36.8199 0.73152
        CHANNELS 3 Zrotation Xrotation Yrotation
        JOINT rFoot
        {
          OFFSET 0.73152 -45.1104 -5.12064
          CHANNELS 3 Zrotation Xrotation Yrotation
          End Site
          {
            OFFSET -1.1221 -3.69964 12.103
          }
        }
      }
    }
  }
  JOINT lButtock
  {
    OFFSET 8.77824 4.35084 1.2192
    CHANNELS 3 Zrotation Xrotation Yrotation
    JOINT lThigh
    {
      OFFSET 0 -1.70687 -2.19456
      CHANNELS 3 Zrotation Xrotation Yrotation
      JOINT lShin
      {
        OFFSET 0 -36.8199 0.73152
        CHANNELS 3 Zrotation Xrotation Yrotation
        JOINT lFoot
        {
          OFFSET -0.73152 -45.1104 -5.12064
          CHANNELS 3 Zrotation Xrotation Yrotation
          End Site
          {
            OFFSET 1.1221 -3.69964 12.103
          }
        }
      }
    }
  }
}
MOTION
Frames:	7
Frame Time:	0.00833333
-5.83806 81.1004 -44.3991 179.009 3.4135 -160.107 -7.85446 -27.3849 -4.5099 2.72002 16.2518 -0.905955 -4.20099 25.5967 1.75353 16.4522 -21.6044 7.99296 -0.0 0.0 0.0 -0.0 0.0 0.0 4.21215e-14 2.07033e-13 -4.37419e-14 82.3981 10.3848 -5.80624 -18.5437 -11.2868 35.2415 -0.0848511 -8.27261 -1.17089 -5.03441e-10 7.30886e-10 -5.65301e-10 -8.67253e-10 1.2573e-09 -9.83261e-10 -5.03439e-10 7.30889e-10 -5.65307e-10 7.73091 5.47488 0.417314 -5.03442e-10 7.30888e-10 -5.65299e-10 2.90554 0.965183 0.102902 -5.03433e-10 7.30889e-10 -5.65297e-10 10.2786 0.731801 0.0259123 -5.03446e-10 7.30891e-10 -5.65289e-10 2.22167 -0.733487 -0.20892 4.2079e-14 2.07035e-13 -4.37947e-14 -77.0191 6.93747 -1.55059 5.97139 -2.03105 -10.4345 0.429196 18.322 -2.66713 -1.65864e-09 6.92482e-10 1.75129e-09 -2.84159e-09 1.20702e-09 3.04877e-09 -1.65865e-09 6.92485e-10 1.7513e-09 -7.73091 5.47488 -0.417314 -1.65864e-09 6.92483e-10 1.75129e-09 -2.90554 0.965183 -0.102902 -1.65865e-09 6.92486e-10 1.75129e-09 -10.2786 0.731801 -0.0259123 -1.65864e-09 6.92488e-10 1.75128e-09 -2.22167 -0.733487 0.20892 -2.03217e-16 0.0 -3.88251e-19 4.55961 -19.7153 8.5871 -0.0227448 18.1565 0.469116 -3.45404 -19.8457 -7.57128 2.03217e-16 0.0 3.88251e-19 -2.73 -41.8045 -17.2579 0.0648955 16.1844 -0.199001 0.564811 5.7477 -2.86625
-5.94635 81.0839 -44.952 178.983 3.4575 -160.05 -8.03891 -27.4206 -4.6398 2.72836 16.2922 -0.928635 -4.18426 25.4856 1.66862 16.6451 -21.6585 7.87193 -0.0 0.0 0.0 -0.0 0.0 0.0 3.49554e-14 1.41645e-13 -1.47291e-14 82.4243 9.90709 -5.82092 -18.1966 -10.9009 34.458 -0.0789997 -7.98121 -1.1291 2.23166e-10 -1.31896e-10 -4.29399e-10 3.89756e-10 -2.33317e-10 -7.43137e-10 2.23168e-10 -1.31893e-10 -4.29407e-10 7.73091 5.47488 0.417314 2.23164e-10 -1.31894e-10 -4.29398e-10 2.90554 0.965183 0.102902 2.23175e-10 -1.31893e-10 -4.29395e-10 10.2786 0.731801 0.0259123 2.2316e-10 -1.31891e-10 -4.29387e-10 2.22167 -0.733487 -0.20892 3.48685e-14 1.41647e-13 -1.47442e-14 -76.9212 7.30423 -1.7578 6.03911 -2.06121 -10.5557 0.402995 17.7709 -2.58148 -6.99695e-10 5.24174e-10 7.99571e-10 -1.19857e-09 9.11403e-10 1.39009e-09 -6.997e-10 5.24174e-10 7.99581e-10 -7.73091 5.47488 -0.417314 -6.99692e-10 5.24173e-10 7.99569e-10 -2.90554 0.965183 -0.102902 -6.99699e-10 5.24174e-10 7.99568e-10 -10.2786 0.731801 -0.0259123 -6.99691e-10 5.24175e-10 7.99558e-10 -2.22167 -0.733487 0.20892 -2.03217e-16 0.0 -3.88251e-19 4.51471 -19.5701 8.70946 -0.0254851 18.6012 0.478096 -3.53035 -19.6576 -7.8024 2.03217e-16 0.0 3.88251e-19 -2.97036 -41.6519 -17.1655 0.0681994 16.636 -0.204384 0.550795 5.5966 -2.7141
-6.06696 81.0785 -45.519 178.948 3.4829 -159.998 -8.27051 -27.4842 -4.74563 2.73204 16.3007 -0.936689 -4.20261 25.4066 1.61071 16.9123 -21.7189 7.81926 -0.0 0.0 0.0 -0.0 0.0 0.0 2.66951e-14 7.95131e-14 -8.74653e-15 82.4712 9.39371 -5.89744 -17.8486 -10.5249 33.6814 -0.071939 -7.63006 -1.07878 7.93135e-10 -8.93022e-10 -2.90372e-10 1.37558e-09 -1.54861e-09 -4.99276e-10 7.93139e-10 -8.93019e-10 -2.90381e-10 7.73091 5.47488 0.417314 7.93133e-10 -8.9302e-10 -2.90372e-10 2.90554 0.965183 0.102902 7.93145e-10 -8.93019e-10 -2.90369e-10 10.2786 0.731801 0.0259123 7.93129e-10 -8.93015e-10 -2.90362e-10 2.22167 -0.733487 -0.20892 2.65809e-14 7.95131e-14 -8.74653e-15 -76.8218 7.61397 -1.94794 6.10526 -2.09085 -10.6741 0.384544 17.3613 -2.5183 1.45177e-10 4.22998e-10 2.31163e-11 2.50037e-10 7.32208e-10 3.63148e-11 1.45171e-10 4.22996e-10 2.31258e-11 -7.73091 5.47488 -0.417314 1.45179e-10 4.22995e-10 2.31131e-11 -2.90554 0.965183 -0.102902 1.45174e-10 4.22995e-10 2.31139e-11 -10.2786 0.731801 -0.0259123 1.45182e-10 4.22996e-10 2.31035e-11 -2.22167 -0.733487 0.20892 -2.03217e-16 0.0 -3.88251e-19 4.4088 -19.5674 8.77803 -0.0307272 19.2212 0.487461 -3.58255 -19.5172 -7.95924 2.03217e-16 0.0 3.88251e-19 -3.23085 -41.5099 -17.0433 0.0709932 17.0408 -0.206813 0.537837 5.38738 -2.67137
-6.18679 81.0801 -46.084 178.897 3.5666 -159.959 -8.5751 -27.5849 -4.83031 2.72818 16.2603 -0.926756 -4.28031 25.3564 1.59378 17.3175 -21.7484 7.87411 -0.0 0.0 0.0 -0.0 0.0 0.0 1.63044e-14 1.83135e-14 -4.5814e-14 82.5463 8.84967 -6.06701 -17.5029 -10.1626 32.9132 -0.0645282 -7.22787 -1.02128 1.15795e-09 -1.59692e-09 -2.02638e-10 2.00617e-09 -2.76579e-09 -3.46506e-10 1.15796e-09 -1.59692e-09 -2.02649e-10 7.73091 5.47488 0.417314 1.15795e-09 -1.59692e-09 -2.02639e-10 2.90554 0.965183 0.102902 1.15796e-09 -1.59692e-09 -2.02637e-10 10.2786 0.731801 0.0259123 1.15795e-09 -1.59692e-09 -2.02633e-10 2.22167 -0.733487 -0.20892 1.61886e-14 1.83111e-14 -4.5828e-14 -76.7255 7.79279 -2.0966 6.16556 -2.118 -10.7822 0.378365 17.2125 -2.49555 8.88087e-10 4.63167e-10 -4.85496e-10 1.52627e-09 7.97824e-10 -8.52573e-10 8.8808e-10 4.63164e-10 -4.85487e-10 -7.73091 5.47488 -0.417314 8.88088e-10 4.63163e-10 -4.85499e-10 -2.90554 0.965183 -0.102902 8.88084e-10 4.63162e-10 -4.85497e-10 -10.2786 0.731801 -0.0259123 8.88092e-10 4.63163e-10 -4.85507e-10 -2.22167 -0.733487 0.20892 -2.03217e-16 0.0 -3.88251e-19 4.22078 -19.7214 8.80005 -0.0389109 20.0451 0.497931 -3.62071 -19.4807 -8.04497 2.03217e-16 0.0 3.88251e-19 -3.54622 -41.3858 -16.9058 0.0732624 17.4134 -0.206698 0.524195 5.08132 -2.7954
-6.31344 81.0891 -46.5856 178.81 3.6482 -159.866 -8.93589 -27.7064 -4.90108 2.71854 16.1897 -0.904477 -4.39316 25.3206 1.60131 17.8191 -21.7586 7.99731 -0.0 0.0 0.0 -0.0 0.0 0.0 2.55002e-15 -5.66515e-14 -1.0954e-13 82.6388 8.27364 -6.28367 -17.1459 -9.79798 32.1286 -0.05712 -6.77797 -0.957115 1.46541e-09 -2.3842e-09 -1.28374e-10 2.5373e-09 -4.12749e-09 -2.18011e-10 1.46543e-09 -2.3842e-09 -1.28385e-10 7.73091 5.47488 0.417314 1.46541e-09 -2.3842e-09 -1.28376e-10 2.90554 0.965183 0.102902 1.46542e-09 -2.3842e-09 -1.28375e-10 10.2786 0.731801 0.0259123 1.46541e-09 -2.38419e-09 -1.28375e-10 2.22167 -0.733487 -0.20892 2.44463e-15 -5.66568e-14 -1.09589e-13 -76.6236 7.91007 -2.22891 6.2255 -2.14509 -10.8898 0.378972 17.2155 -2.49614 1.71371e-09 5.68617e-10 -9.76445e-10 2.94559e-09 9.75824e-10 -1.71171e-09 1.71371e-09 5.68613e-10 -9.76437e-10 -7.73091 5.47488 -0.417314 1.71371e-09 5.68611e-10 -9.76449e-10 -2.90554 0.965183 -0.102902 1.71371e-09 5.68612e-10 -9.76446e-10 -10.2786 0.731801 -0.0259123 1.71372e-09 5.68613e-10 -9.76455e-10 -2.22167 -0.733487 0.20892 -2.03217e-16 0.0 -3.88251e-19 3.97591 -19.997 8.79575 -0.0495397 21.0267 0.509235 -3.64244 -19.4971 -8.06904 2.03217e-16 0.0 3.88251e-19 -3.90289 -41.2709 -16.7747 0.0751431 17.7678 -0.20468 0.50457 4.66159 -3.0063
-6.47196 81.1162 -47.0731 178.577 3.8471 -159.817 -9.3075 -27.8406 -4.94602 2.7083 16.113 -0.873196 -4.50401 25.3175 1.61399 18.3063 -21.8242 8.13046 -0.0 0.0 0.0 -0.0 0.0 0.0 -1.13113e-14 -1.29132e-13 -1.67173e-13 82.733 7.65598 -6.51104 -16.7832 -9.43644 31.3417 -0.0488805 -6.25826 -0.883127 1.71382e-09 -3.04942e-09 2.64916e-11 2.96622e-09 -5.27797e-09 4.94632e-11 1.71384e-09 -3.04943e-09 2.64796e-11 7.73091 5.47488 0.417314 1.71382e-09 -3.04942e-09 2.64893e-11 2.90554 0.965183 0.102902 1.71383e-09 -3.04942e-09 2.64879e-11 10.2786 0.731801 0.0259123 1.71382e-09 -3.04942e-09 2.64856e-11 2.22167 -0.733487 -0.20892 -1.14037e-14 -1.2914e-13 -1.67271e-13 -76.5148 8.08019 -2.38057 6.29061 -2.17474 -11.0066 0.377404 17.1837 -2.4912 2.45629e-09 6.29416e-10 -1.4704e-09 4.22179e-09 1.07665e-09 -2.57468e-09 2.45629e-09 6.29412e-10 -1.47039e-09 -7.73091 5.47488 -0.417314 2.45629e-09 6.29409e-10 -1.4704e-09 -2.90554 0.965183 -0.102902 2.45629e-09 6.2941e-10 -1.4704e-09 -10.2786 0.731801 -0.0259123 2.4563e-09 6.29411e-10 -1.4704e-09 -2.22167 -0.733487 0.20892 -2.03217e-16 0.0 -3.88251e-19 3.70301 -20.3885 8.73417 -0.0624359 22.1358 0.520346 -3.62949 -19.478 -8.01805 2.03217e-16 0.0 3.88251e-19 -4.23351 -41.1546 -16.6017 0.0763197 18.0609 -0.199274 0.481172 4.22823 -3.23467
-6.59827 81.1496 -47.5388 178.425 4.145 -159.733 -9.64436 -27.9796 -4.95312 2.70258 16.0541 -0.836244 -4.57582 25.3652 1.61249 18.6686 -22.02 8.21537 -0.0 0.0 0.0 -0.0 0.0 0.0 -2.20226e-14 -1.82878e-13 -1.85963e-13 82.8147 6.98695 -6.71305 -16.4208 -9.08414 30.566 -0.0392655 -5.64662 -0.796186 1.9015e-09 -3.38717e-09 3.56031e-10 3.29019e-09 -5.86151e-09 6.19173e-10 1.90153e-09 -3.38718e-09 3.56019e-10 7.73091 5.47488 0.417314 1.9015e-09 -3.38717e-09 3.56028e-10 2.90554 0.965183 0.102902 1.90151e-09 -3.38717e-09 3.56026e-10 10.2786 0.731801 0.0259123 1.9015e-09 -3.38716e-09 3.56022e-10 2.22167 -0.733487 -0.20892 -2.2109e-14 -1.82886e-13 -1.86112e-13 -76.3963 8.41742 -2.58759 6.36637 -2.20956 -11.1424 0.364979 16.9305 -2.45194 2.95006e-09 5.35631e-10 -1.98801e-09 5.06873e-09 9.10758e-10 -3.4751e-09 2.95006e-09 5.35626e-10 -1.98801e-09 -7.73091 5.47488 -0.417314 2.95006e-09 5.35624e-10 -1.98802e-09 -2.90554 0.965183 -0.102902 2.95006e-09 5.35625e-10 -1.98801e-09 -10.2786 0.731801 -0.0259123 2.95007e-09 5.35626e-10 -1.98802e-09 -2.22167 -0.733487 0.20892 -2.03217e-16 0.0 -3.88251e-19 3.42948 -20.8906 8.58387 -0.0773099 23.3426 0.530191 -3.56405 -19.3348 -7.87875 2.03217e-16 0.0 3.88251e-19 -4.47149 -41.0263 -16.3389 0.0764782 18.2495 -0.18899 0.459549 3.88115 -3.41125
